<?xml version="1.0" encoding="UTF-8"?>
<svg width="550px" height="550px" viewBox="0 0 550 550" version="1.1" xmlns="http://www.w3.org/2000/svg" xmlns:xlink="http://www.w3.org/1999/xlink">
    <title>code-tag</title>
    <g id="code-tag" stroke="none" fill="none" fill-rule="evenodd" stroke-width="1">
        <g id="Group" transform="translate(25, 81)" fill="#62F8C3">
            <path d="M164.595407,97.9770059 C175.259411,88.1936406 175.979844,71.6106382 166.204542,60.9378378 C156.429241,50.2652472 139.859907,49.5442198 129.195904,59.3275851 L164.595407,97.9770059 Z M29.5913047,186.269524 L47.2911614,205.595493 L47.2911614,205.595493 L29.5913047,186.269524 Z M29.5913047,201.730299 L47.2911614,182.40433 L47.2911614,182.40433 L29.5913047,201.730299 Z M129.195904,328.671399 C139.859907,338.454974 156.429241,337.735624 166.204542,327.062824 C175.979844,316.390024 175.259411,299.805134 164.595407,290.023656 L129.195904,328.671399 Z M129.195904,59.3275851 L11.8915948,166.945652 L47.2911614,205.595493 L164.595407,97.9770059 L129.195904,59.3275851 Z M11.8915948,221.054171 L129.195904,328.671399 L164.595407,290.023656 L47.2911614,182.40433 L11.8915948,221.054171 Z M11.8915948,166.945652 C-3.96386493,181.492035 -3.96386493,206.507788 11.8915948,221.054171 L47.2911614,182.40433 C54.0862417,188.639393 54.0862417,199.36043 47.2911614,205.595493 L11.8915948,166.945652 Z" id="Shape" fill-rule="nonzero"></path>
            <path d="M335.403655,290.023656 C324.739652,299.805134 324.020895,316.390024 333.79431,327.062824 C343.569821,337.735624 360.138946,338.454974 370.802949,328.671399 L335.403655,290.023656 Z M470.408386,201.730299 L452.709787,182.40433 L452.709787,182.40433 L470.408386,201.730299 Z M470.408386,186.269524 L452.709787,205.595493 L452.709787,205.595493 L470.408386,186.269524 Z M370.802949,59.3275851 C360.138946,49.5442198 343.569821,50.2652472 333.796406,60.9378378 C324.020895,71.6106382 324.739652,88.1936406 335.403655,97.9770059 L370.802949,59.3275851 Z M370.802949,328.671399 L488.109081,221.054171 L452.709787,182.40433 L335.403655,290.023656 L370.802949,328.671399 Z M488.109081,166.945652 L370.802949,59.3275851 L335.403655,97.9770059 L452.709787,205.595493 L488.109081,166.945652 Z M488.109081,221.054171 C503.96364,206.507788 503.96364,181.492035 488.109081,166.945652 L452.709787,205.595493 C445.914078,199.36043 445.914078,188.639393 452.709787,182.40433 L488.109081,221.054171 Z" id="Shape" fill-rule="nonzero"></path>
            <path d="M317.738584,32.5797313 C321.246452,18.5337472 312.713573,4.3004806 298.680004,0.788879726 C284.64434,-2.72251143 270.424272,5.81740661 266.914308,19.8633907 L317.738584,32.5797313 Z M183.094698,355.419463 C179.586201,369.466705 188.11908,383.698504 202.153486,387.211363 C216.188522,390.722125 230.40859,382.182207 233.918554,368.137062 L183.094698,355.419463 Z M266.914308,19.8633907 L183.094698,355.419463 L233.918554,368.137062 L317.738584,32.5797313 L266.914308,19.8633907 Z" id="Shape" fill-rule="nonzero"></path>
        </g>
    </g>
</svg>